<?xml version="1.0" standalone="no"?>
<!DOCTYPE svg PUBLIC "-//W3C//DTD SVG 20010904//EN"
 "http://www.w3.org/TR/2001/REC-SVG-20010904/DTD/svg10.dtd">
<svg version="1.0" xmlns="http://www.w3.org/2000/svg"
 width="1024.000000pt" height="1024.000000pt" viewBox="0 0 1024.000000 1024.000000"
 preserveAspectRatio="xMidYMid meet">
<metadata>
Created by potrace 1.14, written by Peter Selinger 2001-2017
</metadata>
<g transform="translate(0.000000,1024.000000) scale(0.100000,-0.100000)"
fill="#000000" stroke="none">
<path d="M0 5120 l0 -5120 5120 0 5120 0 0 5120 0 5120 -5120 0 -5120 0 0
-5120z m4717 3748 c40 -17 93 -69 93 -90 0 -17 -12 -18 -200 -16 -127 2 -199
7 -198 13 3 16 209 104 245 104 18 1 45 -4 60 -11z m935 -7 c49 -21 160 -73
293 -136 50 -24 126 -60 170 -80 82 -38 117 -54 270 -125 164 -76 190 -88 270
-125 44 -20 112 -52 150 -70 125 -59 249 -117 310 -145 33 -15 101 -46 150
-70 50 -23 119 -56 155 -72 81 -37 169 -78 285 -133 50 -23 116 -54 148 -69
179 -82 188 -88 221 -153 30 -59 26 -72 -107 -353 -24 -52 -59 -126 -77 -165
-18 -38 -48 -103 -66 -142 -19 -40 -50 -108 -70 -150 -20 -43 -58 -124 -85
-181 -27 -56 -49 -104 -49 -107 0 -2 -29 -66 -65 -141 -36 -75 -64 -139 -61
-141 2 -2 21 3 42 12 89 38 324 85 425 85 134 0 352 -50 477 -110 262 -125
443 -352 537 -675 63 -216 82 -465 50 -651 -25 -143 -73 -313 -110 -393 -100
-210 -269 -390 -469 -497 l-61 -34 98 0 c172 0 389 -45 512 -106 135 -67 257
-186 329 -324 45 -85 86 -251 86 -348 0 -96 -41 -265 -86 -355 -35 -71 -93
-157 -142 -209 l-25 -27 21 -48 c78 -182 169 -375 225 -473 77 -136 96 -204
78 -277 -19 -73 -56 -129 -106 -159 -82 -48 -132 -53 -485 -53 -344 0 -407 6
-472 47 l-32 21 -40 -23 c-74 -42 -137 -48 -466 -42 -168 3 -318 5 -335 5 -16
0 -487 -3 -1045 -5 -1120 -6 -1119 -6 -1193 52 l-42 32 -38 -30 c-63 -50 -118
-57 -457 -57 -343 0 -393 6 -460 59 -47 37 -85 99 -94 153 l-7 38 -34 -30
c-197 -173 -536 -282 -783 -252 -338 42 -612 206 -786 473 -70 107 -107 187
-136 294 l-23 82 -55 -25 c-64 -28 -221 -67 -339 -84 l-83 -11 1 -127 c0 -69
6 -168 13 -218 10 -80 9 -101 -4 -151 -28 -102 -90 -164 -188 -188 -81 -19
-673 -19 -754 0 -97 24 -165 93 -188 194 -10 42 -9 77 1 175 20 175 20 1453 0
1619 -15 134 -7 197 36 260 69 102 138 121 433 117 118 -2 277 -2 352 -1 l138
2 -34 44 c-19 25 -43 73 -55 108 -98 304 -282 888 -372 1183 -60 198 -130 417
-155 487 -72 202 -76 222 -58 293 28 106 78 163 171 191 67 21 685 20 773 0
111 -26 178 -103 200 -231 14 -80 45 -209 58 -245 9 -22 12 -17 32 50 12 41
35 125 50 187 41 164 92 219 225 244 39 7 71 14 73 15 2 1 -13 37 -33 80 -20
44 -48 104 -62 134 -14 30 -42 91 -63 135 -21 44 -54 115 -74 158 -20 42 -51
110 -70 150 -18 39 -48 104 -66 142 -32 68 -65 139 -151 321 -49 105 -55 132
-39 178 17 52 53 91 108 116 109 52 171 80 237 110 39 18 115 54 170 80 55 26
125 59 155 73 52 23 121 55 319 149 47 22 111 52 141 65 30 14 101 48 158 74
106 51 132 58 132 37 0 -7 0 -462 0 -1010 l0 -998 40 0 40 0 0 1081 c0 803 3
1092 12 1121 7 25 27 53 51 74 l40 34 746 2 c410 2 752 1 759 -1 19 -5 15 -19
-32 -116 -23 -49 -55 -115 -69 -145 -46 -99 -99 -214 -127 -275 -15 -33 -47
-100 -70 -150 -23 -49 -69 -148 -102 -220 -33 -71 -85 -182 -115 -245 -31 -63
-82 -172 -114 -242 -32 -69 -73 -159 -92 -200 -32 -68 -49 -104 -143 -305 -20
-43 -49 -105 -64 -138 -15 -33 -48 -104 -74 -158 -25 -54 -46 -102 -46 -108 0
-5 18 -9 40 -9 l40 0 36 78 c20 42 49 104 64 137 15 33 47 101 70 150 23 50
58 124 77 165 19 41 50 107 68 145 18 39 50 106 70 150 21 44 52 112 70 150
18 39 46 99 63 135 61 133 101 217 140 300 53 114 108 231 144 310 44 96 74
160 145 309 34 73 63 135 63 136 0 17 143 295 160 310 52 47 113 56 182 26z
m820 -197 c31 -6 98 -78 98 -105 0 -33 -19 -30 -112 15 -51 24 -110 51 -130
60 -22 9 -38 22 -38 31 0 15 10 16 78 10 42 -3 89 -9 104 -11z"/>
<path d="M5480 8285 c-290 -385 -276 -371 -333 -349 -11 4 -21 -4 -31 -25 -29
-55 -24 -63 85 -114 56 -26 108 -47 115 -47 8 0 22 16 31 35 16 35 16 35 -10
63 -15 15 -27 32 -27 38 0 5 17 29 38 53 l38 44 54 -24 c30 -13 72 -34 95 -46
39 -21 40 -23 37 -69 -5 -72 -15 -85 -60 -78 -34 5 -39 3 -55 -26 -10 -17 -16
-37 -14 -44 3 -8 32 -26 64 -41 32 -15 78 -37 103 -49 25 -13 51 -21 58 -18 7
2 19 20 28 40 15 36 15 37 -16 62 l-32 26 27 114 c14 63 32 142 40 175 8 33
24 98 35 145 47 199 92 398 97 432 5 35 4 37 -32 52 -21 9 -43 16 -49 16 -6 0
-135 -164 -286 -365z m201 21 c-15 -59 -48 -205 -55 -247 -10 -60 -24 -63 -99
-27 -37 18 -67 38 -67 45 0 11 131 193 197 272 23 28 29 31 31 17 2 -10 -1
-37 -7 -60z"/>
<path d="M4034 8530 c-17 -7 -23 -21 -29 -66 -4 -32 -11 -68 -16 -81 -5 -13
-13 -49 -18 -81 -6 -31 -19 -100 -31 -152 -35 -159 -54 -246 -93 -438 -8 -40
-17 -76 -20 -79 -3 -3 -21 -8 -39 -12 -31 -6 -33 -10 -33 -46 l0 -40 110 -5
c61 -3 115 -4 121 -2 16 5 24 53 13 74 -5 9 -21 18 -36 20 -27 3 -28 5 -26 56
4 91 7 93 136 90 l112 -3 14 -63 c16 -69 11 -82 -35 -82 -12 0 -25 -7 -28 -16
-9 -24 -7 -62 4 -69 5 -3 60 -6 121 -7 110 -2 112 -1 121 22 14 38 2 70 -27
70 -34 0 -53 33 -70 121 -8 41 -24 117 -35 169 -11 52 -32 149 -46 215 -14 66
-35 163 -46 215 -11 52 -24 115 -29 139 -5 24 -10 45 -12 47 -9 8 -66 11 -83
4z m59 -326 c19 -91 38 -178 54 -244 20 -85 15 -94 -60 -97 -77 -3 -107 5
-107 28 0 10 11 65 24 122 13 56 27 125 31 152 13 92 43 112 58 39z"/>
<path d="M2508 7737 l-27 -22 14 -60 c7 -33 21 -91 30 -130 8 -38 23 -101 31
-140 8 -38 19 -86 24 -105 9 -32 26 -105 67 -285 8 -38 21 -91 28 -116 14 -50
11 -60 -22 -78 -28 -14 -29 -48 -3 -79 22 -27 31 -25 121 19 32 16 70 34 84
39 33 12 40 33 25 69 -14 36 -34 45 -60 29 -26 -17 -44 2 -58 62 -10 40 -9 47
10 67 12 13 25 23 30 23 4 0 37 14 71 30 35 17 69 30 75 30 5 0 27 -23 48 -51
36 -49 37 -52 19 -65 -10 -8 -22 -14 -27 -14 -4 0 -8 -11 -8 -25 0 -27 26 -75
41 -75 5 0 46 18 90 40 45 22 87 40 95 40 7 0 18 9 24 21 15 27 -18 85 -46 81
-10 -2 -28 -4 -38 -5 -14 -2 -87 89 -290 360 -294 392 -290 389 -348 340z
m168 -274 c14 -16 160 -208 192 -253 8 -11 11 -23 8 -29 -10 -16 -139 -72
-146 -64 -8 8 -25 75 -60 233 -12 52 -24 103 -27 113 -2 9 0 17 6 17 6 0 18
-8 27 -17z"/>
<path d="M6033 7237 c-197 -83 -267 -300 -166 -515 25 -54 6 -50 -52 11 -30
31 -78 69 -107 84 -46 23 -65 27 -148 27 -90 1 -99 -1 -158 -33 -71 -39 -132
-102 -164 -170 -18 -37 -22 -65 -23 -141 0 -106 12 -144 71 -217 35 -43 154
-115 209 -127 29 -6 31 -4 58 54 20 43 39 68 70 89 78 53 92 55 522 61 l400 5
-55 56 c-75 75 -133 101 -234 103 -86 1 -111 18 -54 35 117 35 174 66 227 126
43 49 67 100 82 172 31 148 -57 310 -204 379 -71 33 -197 33 -274 1z"/>
<path d="M7815 6285 c-254 -46 -403 -120 -552 -274 l-63 -64 0 61 c0 141 -43
218 -133 241 -63 15 -1260 16 -1322 0 -55 -14 -102 -59 -116 -112 -10 -39 -5
-121 17 -267 l6 -35 -33 45 c-126 173 -321 283 -612 347 -117 25 -137 26 -508
30 -426 5 -450 3 -501 -51 l-31 -33 -32 32 c-55 54 -84 56 -725 53 -575 -3
-575 -3 -611 -25 -46 -29 -63 -64 -94 -193 -34 -140 -158 -531 -166 -522 -13
16 -140 475 -149 542 -13 94 -34 136 -83 168 l-40 27 -336 3 c-185 2 -355 0
-379 -3 -57 -8 -104 -55 -119 -119 -10 -45 -8 -56 39 -189 27 -78 92 -281 144
-452 52 -170 167 -539 257 -820 180 -565 177 -560 270 -584 62 -15 602 -15
664 0 101 26 140 110 109 234 l-16 64 84 243 c46 134 128 371 181 528 54 157
100 287 102 290 10 11 -5 -1097 -16 -1149 -20 -103 25 -186 114 -210 53 -14
646 -15 698 0 20 5 52 25 71 44 l34 33 12 -22 c6 -13 26 -31 43 -42 30 -18 58
-19 427 -22 319 -2 415 0 502 13 303 44 515 160 658 358 18 26 35 45 37 43 2
-2 -3 -62 -12 -133 -19 -147 -13 -192 31 -237 15 -14 44 -31 65 -36 25 -7 275
-10 721 -8 649 3 685 4 714 22 50 30 67 70 72 163 l4 83 55 -50 c237 -216 566
-300 873 -222 195 50 331 126 462 259 133 135 212 285 263 494 39 160 48 248
42 397 -14 386 -170 724 -412 896 -80 57 -143 88 -243 120 -171 54 -325 67
-467 41z m360 -175 c140 -36 239 -90 334 -183 92 -90 147 -181 201 -332 51
-145 64 -230 65 -415 0 -173 -13 -263 -57 -400 -85 -265 -300 -473 -563 -546
-87 -24 -283 -29 -372 -11 -270 58 -493 255 -589 522 -60 170 -77 276 -71 465
6 199 34 327 102 465 115 235 313 395 540 439 44 8 91 17 105 20 51 10 228 -4
305 -24z m-6152 -27 c3 -10 8 -40 12 -68 6 -45 274 -975 294 -1020 7 -16 17 6
49 105 22 69 85 265 140 435 55 171 114 367 132 438 l33 127 223 0 c123 0 224
-2 224 -4 0 -3 -25 -69 -56 -148 -30 -79 -118 -325 -194 -548 -76 -223 -184
-538 -240 -700 l-102 -295 16 -75 c9 -42 16 -79 16 -83 0 -4 -134 -6 -297 -5
l-297 3 -128 400 c-70 220 -176 555 -234 745 -121 394 -189 606 -215 668 l-18
42 319 0 c295 0 319 -1 323 -17z m1728 11 l75 -7 -10 -81 c-12 -100 -14 -1486
-3 -1648 l8 -118 -311 0 c-292 0 -311 1 -306 18 2 9 10 60 18 112 16 119 18
1522 2 1643 -6 42 -8 80 -5 82 7 7 446 6 532 -1z m1199 -18 c392 -75 596 -256
672 -596 30 -138 33 -410 4 -565 -67 -361 -261 -571 -601 -648 -80 -18 -135
-20 -503 -24 l-413 -5 8 94 c10 116 11 1608 1 1701 l-7 69 377 -5 c291 -4 396
-8 462 -21z m2080 -152 l0 -176 -47 6 c-27 3 -122 8 -213 11 -91 3 -220 8
-287 11 l-123 6 0 -222 0 -223 245 5 245 6 0 -170 0 -170 -245 7 -245 7 0
-227 0 -227 313 6 c171 3 333 9 360 12 l47 6 0 -176 0 -176 -651 0 -651 0 6
33 c21 115 25 252 25 887 1 565 -2 727 -14 815 -8 61 -15 113 -15 118 0 4 281
7 625 7 l625 0 0 -176z m-3063 -1106 c-1 -172 -2 -32 -2 312 0 344 1 484 2
313 2 -172 2 -454 0 -625z m2872 782 c96 -5 175 -11 177 -13 3 -3 -27 -129
-32 -136 -1 -1 -13 7 -25 18 -40 37 -91 44 -271 36 l-168 -7 0 56 0 56 73 0
c39 0 150 -5 246 -10z m165 -774 c9 -38 15 -70 12 -73 -9 -10 -200 -22 -343
-23 l-153 0 0 63 0 62 169 -3 c177 -3 234 4 267 37 10 10 22 16 25 12 3 -3 14
-37 23 -75z"/>
<path d="M7879 5777 c-47 -32 -87 -101 -104 -182 -53 -256 -40 -713 26 -891
14 -37 38 -75 64 -101 38 -38 48 -43 88 -43 87 0 143 78 171 241 23 135 38
356 31 464 -23 358 -47 452 -133 510 -46 32 -98 32 -143 2z m86 -199 c28 -170
33 -500 10 -688 -9 -68 -18 -126 -20 -128 -9 -10 -24 49 -36 144 -23 183 -13
585 17 687 8 27 23 20 29 -15z"/>
<path d="M4697 5700 c-4 -35 -7 -305 -7 -601 l0 -539 48 0 c161 0 258 92 297
279 39 185 39 512 0 661 -43 166 -127 248 -266 258 l-66 4 -6 -62z m193 -288
c15 -101 12 -403 -4 -504 -30 -181 -35 -139 -35 257 1 338 2 376 15 347 8 -17
18 -62 24 -100z"/>
<path d="M2885 4617 l-81 -232 16 -71 c15 -65 15 -75 0 -132 -40 -146 -137
-200 -360 -202 l-105 -1 58 -24 c77 -32 181 -103 241 -164 l49 -50 66 58 c84
74 168 131 257 173 l70 34 -38 24 c-51 32 -87 86 -103 156 -11 50 -11 76 1
176 9 74 13 184 12 301 l-3 185 -80 -231z"/>
<path d="M5455 4169 c-79 -55 -184 -103 -276 -128 -41 -11 -63 -20 -49 -20 45
-2 127 -57 155 -106 l27 -45 60 41 c71 48 169 94 221 104 l37 7 -30 28 c-33
31 -69 102 -70 138 0 12 -3 22 -7 22 -5 0 -35 -19 -68 -41z"/>
<path d="M7294 4094 l-31 -52 86 -6 c47 -4 113 -9 146 -12 l60 -5 -62 30 c-34
16 -86 45 -115 63 l-53 35 -31 -53z"/>
<path d="M3930 4011 c-18 -12 -22 -9 70 -54 41 -20 108 -61 147 -91 l73 -55 6
27 c10 49 25 78 54 110 l29 32 -107 0 c-67 0 -128 6 -162 16 -86 24 -94 25
-110 15z"/>
<path d="M3360 3966 c-175 -31 -299 -77 -404 -148 -95 -64 -143 -107 -201
-181 l-54 -67 -40 59 c-92 135 -248 235 -441 282 -93 23 -104 24 -630 24
l-535 0 -37 -23 c-22 -14 -45 -41 -59 -69 -22 -45 -22 -47 -8 -177 20 -186 20
-1420 0 -1623 -13 -139 -13 -142 8 -187 14 -27 37 -54 59 -68 37 -23 39 -23
397 -23 357 0 360 0 396 23 21 12 45 35 55 50 21 31 21 37 9 384 l-8 226 44 6
c24 3 85 10 134 17 174 22 321 67 419 129 27 17 49 30 50 28 1 -2 14 -54 29
-117 36 -150 75 -244 143 -349 139 -213 329 -347 581 -409 379 -94 793 70
1018 402 l48 70 -8 -105 c-4 -58 -10 -125 -14 -150 -14 -94 36 -178 119 -200
27 -7 152 -10 363 -8 301 3 324 4 355 23 74 45 86 97 69 305 l-7 95 26 -59
c14 -32 38 -109 52 -169 30 -125 60 -167 129 -186 58 -17 2037 -14 2083 2 28
10 44 10 79 0 58 -17 601 -18 668 -2 53 14 111 67 120 110 8 39 16 37 37 -11
21 -47 65 -84 121 -99 25 -7 161 -11 366 -11 356 0 402 6 453 56 36 36 51 95
37 149 -6 23 -38 91 -73 150 -52 92 -283 585 -275 590 75 48 160 154 207 259
68 150 86 308 50 451 -75 298 -283 462 -650 515 -48 7 -253 10 -575 8 -465 -3
-503 -4 -529 -21 -27 -18 -29 -18 -64 0 -34 17 -81 18 -676 21 -526 2 -648 0
-687 -11 -38 -12 -52 -12 -66 -2 -82 55 -319 41 -495 -30 -85 -34 -211 -127
-272 -200 l-51 -60 0 95 c0 114 -16 149 -85 183 -43 21 -58 22 -345 25 -341 4
-385 -1 -433 -51 -44 -46 -54 -96 -42 -208 5 -52 10 -113 10 -137 l0 -43 -59
88 c-89 133 -212 239 -349 300 -159 71 -410 106 -562 79z m331 -171 c147 -31
279 -104 378 -211 72 -76 117 -151 166 -274 60 -150 79 -257 79 -455 0 -149
-3 -183 -26 -280 -32 -137 -58 -204 -106 -283 -113 -187 -265 -308 -467 -372
-51 -16 -105 -24 -196 -27 -163 -7 -247 10 -387 79 -284 139 -450 424 -471
808 -23 427 147 786 448 944 166 87 381 113 582 71z m2263 -12 c-1 -7 -2 -94
-2 -193 l-2 -180 -62 0 c-35 0 -80 -5 -100 -10 -56 -16 -126 -68 -184 -137
l-53 -62 76 -173 c41 -95 127 -297 190 -448 63 -151 153 -356 200 -455 46 -99
87 -186 90 -192 4 -10 -64 -13 -321 -13 l-325 0 -11 43 c-39 150 -56 201 -118
343 -38 87 -84 198 -102 247 -18 48 -34 86 -35 85 -2 -2 -35 -55 -75 -118
l-73 -115 7 -215 c3 -118 9 -227 12 -242 l6 -28 -302 0 -303 0 6 48 c24 185
28 386 24 998 -3 415 -9 686 -16 733 -6 41 -9 76 -7 78 2 2 137 0 301 -3 l297
-7 -6 -61 c-3 -34 -9 -198 -12 -366 l-6 -305 84 150 c104 186 216 353 282 423
90 95 209 161 329 181 77 13 212 9 211 -6z m-3771 -27 c189 -42 314 -135 387
-291 76 -163 74 -369 -5 -525 -108 -213 -310 -304 -723 -326 l-134 -7 5 -306
c3 -168 9 -323 13 -343 l6 -38 -317 0 -317 0 6 43 c36 244 37 1531 1 1771 l-7
41 504 -1 c438 0 513 -3 581 -18z m5217 -152 l0 -177 -62 6 c-35 4 -148 9
-253 12 -104 3 -227 8 -272 11 l-83 5 0 -222 0 -222 245 5 245 5 0 -170 0
-170 -250 7 -250 8 0 -180 c0 -98 3 -201 7 -227 l6 -47 316 6 c174 3 335 9
359 12 l42 6 0 -176 0 -176 -651 0 -652 0 7 53 c4 28 12 90 17 137 11 110 11
1349 0 1460 -5 47 -13 113 -16 148 l-8 62 627 0 626 0 0 -176z m1235 166 c102
-15 182 -37 245 -67 69 -33 179 -141 214 -210 77 -152 73 -325 -9 -482 -49
-93 -86 -134 -176 -197 -89 -63 -87 -43 -19 -189 23 -49 80 -175 126 -278 74
-166 130 -275 196 -384 l20 -33 -341 0 -341 0 -24 54 c-13 29 -58 152 -99 272
-42 120 -92 257 -111 304 -33 83 -35 85 -69 88 -34 3 -36 1 -43 -34 -8 -42 3
-601 12 -651 l6 -33 -307 0 -307 0 6 27 c18 89 26 356 26 897 0 554 -6 737
-26 879 l-7 47 479 0 c265 0 510 -5 549 -10z m-1285 -495 c41 0 87 3 103 8
l27 7 0 -432 0 -433 -62 -1 c-35 -1 -168 -5 -295 -9 l-233 -8 0 62 0 63 163
-3 c195 -2 229 3 271 46 46 46 56 97 56 285 0 184 -10 236 -52 279 -45 46 -87
53 -274 45 l-164 -7 0 57 0 58 193 -9 c105 -4 226 -8 267 -8z m-1332 -566 l-3
-192 -24 59 c-13 32 -76 180 -139 329 l-114 269 41 38 c39 36 43 38 113 39 40
1 84 4 98 8 l25 7 3 -182 c1 -101 1 -269 0 -375z"/>
<path d="M3419 3457 c-72 -48 -105 -139 -128 -349 -27 -248 0 -612 56 -746 38
-91 113 -143 178 -122 36 12 75 50 99 97 62 124 88 530 52 831 -19 157 -41
215 -102 272 -52 48 -101 54 -155 17z m85 -204 c29 -187 34 -489 11 -678 -8
-66 -15 -123 -15 -127 0 -5 -4 -8 -9 -8 -26 0 -56 352 -47 545 6 118 18 222
31 283 8 34 23 26 29 -15z"/>
<path d="M1710 3191 c0 -209 2 -240 16 -245 26 -10 67 -7 120 9 181 54 238
291 98 413 -50 45 -100 62 -178 62 l-56 0 0 -239z"/>
<path d="M8202 3219 l3 -224 70 1 c85 1 136 16 181 57 90 78 104 191 36 290
-43 63 -101 90 -204 95 l-88 4 2 -223z m165 -16 c-3 -10 -5 -2 -5 17 0 19 2
27 5 18 2 -10 2 -26 0 -35z"/>
<path d="M5861 3143 c0 -5 13 -35 29 -68 l28 -60 1 68 1 67 -30 0 c-16 0 -30
-3 -29 -7z"/>
</g>
</svg>
